<svg xmlns="http://www.w3.org/2000/svg" viewBox="0 0 16 16" height="16" width="16"><title>building-11.svg</title><rect fill="none" x="0" y="0" width="16" height="16"></rect><path fill="rgba(224,224,224,0.6)" transform="translate(2 2)" d="M2,1v9h4V6h2v4h1V1H2z M5,9H3V6h2V9z M5,5H3V3h2V5z M8,5H6V3h2V5z" style="stroke-linejoin:round;stroke-miterlimit:4;" stroke="rgba(224,224,224,0.6)" stroke-width="1"></path><path fill="#000" transform="translate(2 2)" d="M2,1v9h4V6h2v4h1V1H2z M5,9H3V6h2V9z M5,5H3V3h2V5z M8,5H6V3h2V5z"></path></svg>