<svg width="21px" height="21px" viewBox="0 0 21 21" version="1.1" xmlns="http://www.w3.org/2000/svg" xmlns:xlink="http://www.w3.org/1999/xlink" transform="translate(2 2)">
    <title>capital-city-15</title>
    <path d="M14,8.5 C14,11.5375889 11.5375889,14 8.5,14 C5.46241111,14 3,11.5375889 3,8.5 C3,5.46241111 5.46241111,3 8.5,3 C11.5375889,3 14,5.46241111 14,8.5 Z" id="Shape" stroke-opacity="0.180000007" stroke="#DBDBDB" stroke-width="2" fill-opacity="0.180000007" fill="#DBDBDB" fill-rule="nonzero" stroke-linejoin="round"></path>
    <path d="M8.5,14 C5.46243388,14 3,11.5375661 3,8.5 C3,5.46243388 5.46243388,3 8.5,3 C11.5375661,3 14,5.46243388 14,8.5 C14,11.5375661 11.5375661,14 8.5,14 Z M8.5,10.75 L11.1450336,12.1405765 L10.6398772,9.19528824 L12.7797543,7.10942353 L9.82251682,6.67971176 L8.5,4 L7.17748318,6.67971176 L4.22024568,7.10942353 L6.36012284,9.19528824 L5.85496636,12.1405765 L8.5,10.75 Z" id="Combined-Shape" fill="#2C2C2D"></path>
</svg>
