<svg xmlns="http://www.w3.org/2000/svg" viewBox="0 0 20 20" height="20" width="20"><title>commercial-15.svg</title><rect fill="none" x="0" y="0" width="20" height="20"></rect><path fill="rgba(224,224,224,0.6)" transform="translate(2 2)" d="M14,7H1c0.0881-1.3829,0.427-2.7383,1-4h11C13.5731,4.2617,13.9119,5.6171,14,7z M3,8h9v6h-1V9H8v5H3V8z M4,11h3V9H4V11z" style="stroke-linejoin:round;stroke-miterlimit:4;" stroke="rgba(224,224,224,0.6)" stroke-width="1"></path><path fill="#000" transform="translate(2 2)" d="M14,7H1c0.0881-1.3829,0.427-2.7383,1-4h11C13.5731,4.2617,13.9119,5.6171,14,7z M3,8h9v6h-1V9H8v5H3V8z M4,11h3V9H4V11z"></path></svg>