<svg xmlns="http://www.w3.org/2000/svg" viewBox="0 0 16 16" height="16" width="16"><title>farm-11.svg</title><rect fill="none" x="0" y="0" width="16" height="16"></rect><path fill="rgba(224,224,224,0.6)" transform="translate(2 2)" d="M6,5L4,4,2,5,1,7v3l1.5,0V8h3v2L7,10V7ZM5,7H3V5.5H5V7Z" style="stroke-linejoin:round;stroke-miterlimit:4;" stroke="rgba(224,224,224,0.6)" stroke-width="1"></path><path fill="rgba(224,224,224,0.6)" transform="translate(2 2)" d="M10,2A1,1,0,0,0,8,2v8h2V2Z" style="stroke-linejoin:round;stroke-miterlimit:4;" stroke="rgba(224,224,224,0.6)" stroke-width="1"></path><path fill="#000" transform="translate(2 2)" d="M6,5L4,4,2,5,1,7v3l1.5,0V8h3v2L7,10V7ZM5,7H3V5.5H5V7Z"></path><path fill="#000" transform="translate(2 2)" d="M10,2A1,1,0,0,0,8,2v8h2V2Z"></path></svg>