<svg xmlns="http://www.w3.org/2000/svg" viewBox="0 0 20 20" height="20" width="20"><title>information-15.svg</title><rect fill="none" x="0" y="0" width="20" height="20"></rect><path fill="rgba(224,224,224,0.6)" transform="translate(2 2)" d="M7.5,1
	C6.7,1,6,1.7,6,2.5S6.7,4,7.5,4S9,3.3,9,2.5S8.3,1,7.5,1z M4,5v1c0,0,2,0,2,2v2c0,2-2,2-2,2v1h7v-1c0,0-2,0-2-2V6c0-0.5-0.5-1-1-1H4
	z" style="stroke-linejoin:round;stroke-miterlimit:4;" stroke="rgba(224,224,224,0.6)" stroke-width="1"></path><path fill="#000" transform="translate(2 2)" d="M7.5,1
	C6.7,1,6,1.7,6,2.5S6.7,4,7.5,4S9,3.3,9,2.5S8.3,1,7.5,1z M4,5v1c0,0,2,0,2,2v2c0,2-2,2-2,2v1h7v-1c0,0-2,0-2-2V6c0-0.5-0.5-1-1-1H4
	z"></path></svg>