<?xml version="1.0" encoding="UTF-8"?>
<svg width="17px" height="17px" viewBox="0 0 17 17" version="1.1" xmlns="http://www.w3.org/2000/svg" xmlns:xlink="http://www.w3.org/1999/xlink">
    <!-- Generator: Sketch 46.2 (44496) - http://www.bohemiancoding.com/sketch -->
    <title>M 17</title>
    <desc>Created with Sketch.</desc>
    <defs></defs>
    <g id="Page-1" stroke="none" stroke-width="1" fill="none" fill-rule="evenodd">
        <g id="M-17">
            <path d="M14,8.5 C14,11.5375889 11.5375889,14 8.5,14 C5.46241111,14 3,11.5375889 3,8.5 C3,5.46241111 5.46241111,3 8.5,3 C11.5375889,3 14,5.46241111 14,8.5 Z" id="Shape" stroke-opacity="0.180000007" stroke="#DBDBDB" stroke-width="2" fill-opacity="0.180000007" fill="#DBDBDB" fill-rule="nonzero" stroke-linejoin="round"></path>
            <path d="M8.5,14 C5.46243388,14 3,11.5375661 3,8.5 C3,5.46243388 5.46243388,3 8.5,3 C11.5375661,3 14,5.46243388 14,8.5 C14,11.5375661 11.5375661,14 8.5,14 Z M8.5,11 C9.88071187,11 11,9.88071187 11,8.5 C11,7.11928813 9.88071187,6 8.5,6 C7.11928813,6 6,7.11928813 6,8.5 C6,9.88071187 7.11928813,11 8.5,11 Z" id="Combined-Shape" fill="#2C2C2D"></path>
        </g>
    </g>
</svg>