<svg xmlns="http://www.w3.org/2000/svg" viewBox="0 0 20 20" height="20" width="20"><title>suitcase-15.svg</title><rect fill="none" x="0" y="0" width="20" height="20"></rect><path fill="rgba(224,224,224,0.6)" transform="translate(2 2)" d="M11,4V2c0-1-1-1-1-1H5.0497
	c0,0-1.1039,0.0015-1.0497,1v2H2c0,0-1,0-1,1v7c0,1,1,1,1,1h11c0,0,1,0,1-1V5c0-1-1-1-1-1H11z M5.5,2.5h4V4h-4V2.5z" style="stroke-linejoin:round;stroke-miterlimit:4;" stroke="rgba(224,224,224,0.6)" stroke-width="1"></path><path fill="#000" transform="translate(2 2)" d="M11,4V2c0-1-1-1-1-1H5.0497
	c0,0-1.1039,0.0015-1.0497,1v2H2c0,0-1,0-1,1v7c0,1,1,1,1,1h11c0,0,1,0,1-1V5c0-1-1-1-1-1H11z M5.5,2.5h4V4h-4V2.5z"></path></svg>